# xmcd
#
# Track frame offsets:
#	150
#	9804
#	26872
#	38035
#	50976
#	60599
#	76718
#	94920
#	108682
#	127275
#
# Disc length: 2079 seconds
#
# Revision: 0
# Processed by: cddbd v1.5.2PL0 Copyright (c) Steve Scherf et al.
# Submitted via: EZCDAudioConverter 2.1.7.1
#
DISCID=83081d0a
DTITLE=Brent Cash - How Will I Know That I'm Awake
DYEAR=1900
DGENRE=
TTITLE0=Everything That's Grey
TTITLE1=Digging The Fault Line
TTITLE2=I Think I'm Falling In Love
TTITLE3=Only Time
TTITLE4=And Had We Ever...
TTITLE5=When The World Stops Turning
TTITLE6=Love Is Burning Down Tonight
TTITLE7=Good Morning Sunshine
TTITLE8=This Sea, These Waves
TTITLE9=More Than Everything
EXTD=
EXTT0=
EXTT1=
EXTT2=
EXTT3=
EXTT4=
EXTT5=
EXTT6=
EXTT7=
EXTT8=
EXTT9=
PLAYORDER=
